<?xml version="1.0" encoding="UTF-8"?>
<!DOCTYPE svg PUBLIC "-//W3C//DTD SVG 1.1//EN" "http://www.w3.org/Graphics/SVG/1.1/DTD/svg11.dtd">
<!-- Creator: CorelDRAW 2018 (64-Bit) -->
<svg xmlns="http://www.w3.org/2000/svg" xml:space="preserve" width="42.3332mm" height="27.0898mm" version="1.1" style="shape-rendering:geometricPrecision; text-rendering:geometricPrecision; image-rendering:optimizeQuality; fill-rule:evenodd; clip-rule:evenodd"
viewBox="0 0 4233.32 2708.98"
 xmlns:xlink="http://www.w3.org/1999/xlink">
 <defs>
  <style type="text/css">
   <![CDATA[
    .str0 {stroke:#606062;stroke-width:14.33;stroke-miterlimit:2.613}
    .fil4 {fill:none}
    .fil3 {fill:#FEFEFE}
    .fil0 {fill:#727376}
    .fil2 {fill:#606062}
    .fil1 {fill:#4B4B4D}
    .fil6 {fill:#ED3237}
    .fil5 {fill:#00AFEF}
   ]]>
  </style>
 </defs>
 <g id="Layer_x0020_1">
  <metadata id="CorelCorpID_0Corel-Layer"/>
  <path class="fil0" d="M481.92 2565.15l-49.32 0c-1.4,10.84 -2.69,21.51 -3.86,32.08 -1.18,10.54 -2.02,19.82 -2.5,27.83l-47.19 0c-3.31,0 -5.95,-1.07 -7.93,-3.17 -1.99,-2.11 -3.02,-5.64 -3.02,-10.57 0,-2.11 0.15,-4.36 0.38,-6.7 0.25,-2.36 0.58,-4.57 1.06,-6.68 6.34,-38.55 13.5,-75.55 21.47,-110.99 8,-35.47 18.09,-70.82 30.32,-106.05l63.75 0c4.73,0 8,1.18 9.87,3.52 1.87,2.31 3.31,4.82 4.27,7.39 10.57,31.48 20.18,67.12 28.84,106.94 8.69,39.8 16.48,81.93 23.27,126.31l-50.72 0c-7.53,0 -11.86,-4.22 -13.04,-12.7l-5.65 -47.21zm-24.66 -139.17c-4.92,19.73 -8.85,37.18 -11.78,52.33 -2.98,15.16 -5.72,29.55 -8.29,43.16l40.15 0c-2.57,-13.61 -5.33,-28 -8.27,-43.16 -2.93,-15.15 -6.85,-32.6 -11.81,-52.33zm247.42 199.08l-45.77 0c-8.7,0 -13.03,-4.12 -13.03,-12.34l0 -170.53 45.77 0c8.7,0 13.03,4.12 13.03,12.34l0 170.53zm-29.58 -200.84c-11.97,0 -20.49,-2.06 -25.55,-6.17 -5.03,-4.12 -7.56,-10.99 -7.56,-20.6 0,-9.65 2.53,-16.51 7.56,-20.63 5.06,-4.11 13.58,-6.15 25.55,-6.15 12,0 20.52,2.04 25.54,6.15 5.07,4.12 7.6,10.98 7.6,20.63 0,9.61 -2.53,16.48 -7.6,20.6 -5.02,4.11 -13.54,6.17 -25.54,6.17zm228.4 16.92c9.18,0 13.73,4.11 13.73,12.31l0 40.54c-1.62,-0.23 -3.15,-0.36 -4.55,-0.36 -1.39,0 -3.05,0 -4.95,0 -7.49,0 -14.98,0.58 -22.36,1.75 -7.41,1.17 -13.46,3.78 -18.17,7.78l0 121.9 -45.81 0c-8.65,0 -13.02,-4.12 -13.02,-12.34l0 -170.53 33.84 0c5.17,0 8.8,0.88 10.94,2.64 2.09,1.77 4.08,5.59 5.94,11.45l2.83 9.52c4.95,-7.76 11.05,-13.81 18.31,-18.14 7.3,-4.36 15.06,-6.52 23.27,-6.52zm206.9 185.68c-7.49,0 -14.01,-1.06 -19.53,-3.16 -5.53,-2.12 -11.12,-5.06 -16.73,-8.81l0 70.11 -45.81 0c-8.69,0 -13.02,-4.12 -13.02,-12.33l0 -113.12c0,-10.54 0.22,-21.96 0.7,-34.15 0.47,-12.22 1.54,-24.55 3.15,-37l-6.32 0c-6.6,0 -9.87,-3.89 -9.87,-11.63l0 -28.56c2.57,-0.7 6.5,-1.49 11.79,-2.46 5.28,-0.95 11.44,-1.86 18.5,-2.83 7.04,-0.9 14.68,-1.67 22.9,-2.26 8.22,-0.59 16.55,-0.89 25.03,-0.89 16.44,0 30.35,1.48 41.73,4.4 11.41,2.95 20.66,7.93 27.86,14.98 7.16,7.05 12.33,16.38 15.48,28 3.17,11.64 4.78,26.15 4.78,43.53 0,18.33 -1.54,33.64 -4.59,45.97 -3.05,12.33 -7.26,22.19 -12.7,29.58 -5.39,7.42 -11.78,12.7 -19.2,15.86 -7.37,3.18 -15.45,4.77 -24.15,4.77zm-21.47 -44.04c4.7,0 8.52,-0.7 11.45,-2.1 2.94,-1.43 5.22,-4.07 6.87,-7.96 1.64,-3.85 2.75,-9.22 3.34,-16.01 0.63,-6.82 0.87,-15.75 0.87,-26.78 0,-8.23 -0.21,-15.22 -0.69,-20.98 -0.47,-5.75 -1.65,-10.46 -3.52,-14.08 -1.87,-3.64 -4.63,-6.28 -8.26,-7.92 -3.63,-1.67 -8.67,-2.48 -15.01,-2.48 -2.09,0 -3.97,0.08 -5.62,0.19 -1.65,0.11 -3.04,0.3 -4.22,0.51l0 94.08c4.45,2.35 9.4,3.53 14.79,3.53zm258.36 46.87c-14.31,0 -26.61,-1.85 -36.81,-5.47 -10.24,-3.63 -18.57,-9.33 -25.04,-17.11 -6.46,-7.74 -11.15,-17.66 -14.09,-29.76 -2.94,-12.08 -4.4,-26.59 -4.4,-43.5 0,-17.14 1.46,-31.79 4.4,-43.87 2.94,-12.1 7.63,-22.02 14.09,-29.76 6.47,-7.78 14.8,-13.4 25.04,-16.92 10.2,-3.53 22.5,-5.29 36.81,-5.29 14.31,0 26.61,1.76 36.82,5.29 10.19,3.52 18.57,9.14 25.03,16.92 6.42,7.74 11.15,17.66 14.09,29.76 2.94,12.08 4.37,26.73 4.37,43.87 0,16.91 -1.43,31.42 -4.37,43.5 -2.94,12.1 -7.67,22.02 -14.09,29.76 -6.46,7.78 -14.84,13.48 -25.03,17.11 -10.21,3.62 -22.51,5.47 -36.82,5.47zm20.77 -95.84c0,-11.3 -0.29,-20.27 -0.88,-26.97 -0.58,-6.68 -1.68,-11.87 -3.34,-15.49 -1.64,-3.63 -3.73,-6.07 -6.35,-7.23 -2.57,-1.18 -5.98,-1.76 -10.2,-1.76 -4.22,0 -7.63,0.58 -10.2,1.76 -2.61,1.16 -4.7,3.6 -6.36,7.23 -1.64,3.62 -2.78,8.81 -3.34,15.49 -0.58,6.7 -0.91,15.7 -0.91,26.97 0,11.48 0.33,20.67 0.91,27.48 0.56,6.8 1.7,12.05 3.34,15.67 1.66,3.65 3.75,6.03 6.36,7.23 2.57,1.15 5.98,1.74 10.2,1.74 4.22,0 7.63,-0.59 10.2,-1.74 2.62,-1.2 4.71,-3.58 6.35,-7.23 1.66,-3.62 2.76,-8.87 3.34,-15.67 0.59,-6.81 0.88,-16 0.88,-27.48zm254.51 -92.67c9.14,0 13.73,4.11 13.73,12.31l0 40.54c-1.66,-0.23 -3.16,-0.36 -4.59,-0.36 -1.4,0 -3.05,0 -4.92,0 -7.52,0 -14.97,0.58 -22.39,1.75 -7.38,1.17 -13.43,3.78 -18.13,7.78l0 121.9 -45.81 0c-8.69,0 -13.02,-4.12 -13.02,-12.34l0 -170.53 33.8 0c5.17,0 8.8,0.88 10.94,2.64 2.09,1.77 4.11,5.59 5.98,11.45l2.83 9.52c4.91,-7.76 11.05,-13.81 18.31,-18.14 7.27,-4.36 15.05,-6.52 23.27,-6.52zm218.9 181.79c-7.08,2.13 -13.46,3.66 -19.23,4.59 -5.72,0.96 -12.04,1.42 -18.83,1.42 -9.39,0 -17.8,-0.95 -25.21,-2.82 -7.39,-1.87 -13.73,-5.21 -19.02,-10.06 -5.28,-4.81 -9.32,-11.27 -12.15,-19.37 -2.82,-8.12 -4.21,-18.36 -4.21,-30.84l0 -78.21 -7.06 0c-8.7,0 -13.02,-4.12 -13.02,-12.34l0 -33.11 22.17 0 2.82 -44.4 40.89 0c8.69,0 13.03,4.13 13.03,12.33l0 32.07 26.76 0c8.7,0 13.06,4.12 13.06,12.34l0 33.11 -39.82 0 0 77.15c0,12.48 5.51,18.69 16.56,18.69l10.2 0c8.7,0 13.06,4.1 13.06,12.33l0 27.12zm161.46 -171.93c0,-13.87 1.92,-25.54 5.8,-35.05 3.89,-9.53 9.43,-17.21 16.74,-23.09 7.27,-5.87 16.11,-10.09 26.43,-12.66 10.31,-2.6 21.95,-3.89 34.87,-3.89 11.74,0 21.8,0.78 30.13,2.29 8.33,1.53 14.87,3.22 19.56,5.09 6.1,2.61 9.69,5.64 10.72,9.17 1.07,3.53 1.61,6.95 1.61,10.22l0 25.38c-5.39,-0.26 -10.24,-0.54 -14.45,-0.9 -4.23,-0.34 -8.34,-0.55 -12.34,-0.7 -4,-0.11 -8,-0.23 -11.97,-0.34 -3.99,-0.11 -8.33,-0.19 -13.02,-0.19 -7.31,0 -13.22,0.49 -17.8,1.41 -4.59,0.95 -8.15,2.23 -10.76,3.88 -2.57,1.66 -4.33,3.75 -5.29,6.35 -0.95,2.57 -1.39,5.39 -1.39,8.45 0,3.53 0.4,6.52 1.22,8.98 0.84,2.48 2.48,4.78 4.95,6.88 2.45,2.12 6.09,4.37 10.9,6.68 4.84,2.38 11.34,5.28 19.56,8.81 10.79,4.73 19.9,9.27 27.31,13.75 7.41,4.49 13.39,9.5 17.98,15.16 4.56,5.62 7.86,12.23 9.84,19.72 2.02,7.51 3.01,16.55 3.01,27.12 0,13.4 -1.54,24.85 -4.59,34.36 -3.05,9.53 -7.93,17.38 -14.6,23.63 -6.73,6.21 -15.35,10.8 -25.92,13.72 -10.57,2.94 -23.49,4.42 -38.76,4.42 -11.27,0 -21.84,-0.67 -31.71,-1.94 -9.84,-1.31 -17.51,-3.02 -22.9,-5.12 -4.92,-1.87 -8.33,-4.29 -10.21,-7.22 -1.87,-2.94 -2.83,-6.39 -2.83,-10.39l0 -28.56c9.18,0.7 18.1,1.24 26.8,1.58 8.7,0.37 17.62,0.56 26.75,0.56 8.01,0 14.54,-0.48 19.58,-1.41 5.05,-0.96 8.91,-2.3 11.63,-4.07 2.71,-1.76 4.51,-4 5.46,-6.69 0.93,-2.71 1.4,-5.72 1.4,-8.98 0,-4.23 -0.59,-7.71 -1.76,-10.39 -1.18,-2.72 -3.23,-5.18 -6.16,-7.41 -2.95,-2.25 -6.94,-4.48 -11.98,-6.69 -5.06,-2.22 -11.44,-4.99 -19.2,-8.28 -11.03,-4.45 -20.11,-9.04 -27.15,-13.74 -7.04,-4.69 -12.56,-9.97 -16.55,-15.86 -3.97,-5.87 -6.8,-12.4 -8.45,-19.55 -1.65,-7.16 -2.46,-15.31 -2.46,-24.49zm329.86 178.65c-14.32,0 -26.6,-1.85 -36.81,-5.47 -10.21,-3.63 -18.54,-9.33 -25,-17.11 -6.45,-7.74 -11.2,-17.66 -14.13,-29.76 -2.89,-12.08 -4.37,-26.59 -4.37,-43.5 0,-17.14 1.48,-31.79 4.37,-43.87 2.97,-12.1 7.68,-22.02 14.13,-29.76 6.46,-7.78 14.79,-13.4 25,-16.92 10.21,-3.53 22.49,-5.29 36.81,-5.29 14.36,0 26.61,1.76 36.82,5.29 10.24,3.52 18.57,9.14 25.03,16.92 6.45,7.74 11.16,17.66 14.09,29.76 2.93,12.08 4.41,26.73 4.41,43.87 0,16.91 -1.48,31.42 -4.41,43.5 -2.93,12.1 -7.64,22.02 -14.09,29.76 -6.46,7.78 -14.79,13.48 -25.03,17.11 -10.21,3.62 -22.5,5.47 -36.82,5.47zm20.81 -95.84c0,-11.3 -0.29,-20.27 -0.92,-26.97 -0.55,-6.68 -1.68,-11.87 -3.3,-15.49 -1.65,-3.63 -3.78,-6.07 -6.35,-7.23 -2.6,-1.18 -6.02,-1.76 -10.24,-1.76 -4.21,0 -7.64,0.58 -10.2,1.76 -2.57,1.16 -4.7,3.6 -6.35,7.23 -1.66,3.62 -2.75,8.81 -3.34,15.49 -0.59,6.7 -0.88,15.7 -0.88,26.97 0,11.48 0.29,20.67 0.88,27.48 0.59,6.8 1.68,12.05 3.34,15.67 1.65,3.65 3.78,6.03 6.35,7.23 2.56,1.15 5.99,1.74 10.2,1.74 4.25,0 7.64,-0.59 10.24,-1.74 2.57,-1.2 4.7,-3.58 6.35,-7.23 1.62,-3.62 2.75,-8.87 3.3,-15.67 0.63,-6.81 0.92,-16 0.92,-27.48zm218.18 35.57c0,4.69 0.69,8.03 2.12,10.06 1.39,1.98 4.44,3.23 9.14,3.69 4.7,0.44 7.53,1.76 8.48,3.86 0.92,2.14 1.4,5.39 1.4,9.88l0 26.06c-6.1,1.87 -11.39,3.3 -15.86,4.22 -4.44,0.95 -10.21,1.43 -17.25,1.43 -7.05,0 -13.47,-0.87 -19.2,-2.64 -5.76,-1.76 -10.68,-4.82 -14.79,-9.18 -4.11,-4.33 -7.3,-10.28 -9.54,-17.77 -2.21,-7.51 -3.34,-16.91 -3.34,-28.19l0 -198.72 45.8 0c8.7,0 13.04,4.12 13.04,12.34l0 184.96zm205.17 -127.19l45.81 0c8.65,0 13.02,4.12 13.02,12.34l0 170.53 -33.84 0c-5.39,0 -9.11,-0.88 -11.08,-2.64 -1.99,-1.77 -3.94,-5.59 -5.84,-11.46l-2.09 -6.34c-8.22,8.9 -16.26,15.25 -24.15,19.04 -7.85,3.74 -17.07,5.62 -27.64,5.62 -33.37,0 -50.07,-20.68 -50.07,-62l0.04 -125.09 45.81 0c8.66,0 13.03,4.12 13.03,12.34l0 106.76c0,6.1 1.18,10.62 3.53,13.56 2.34,2.93 6.68,4.4 13.02,4.4 3.53,0 7.16,-0.59 10.91,-1.76 3.77,-1.17 6.93,-2.94 9.54,-5.28l0 -130.02zm270.68 180.74c-7.08,2.13 -13.46,3.66 -19.22,4.59 -5.74,0.96 -12.04,1.42 -18.83,1.42 -9.4,0 -17.81,-0.95 -25.22,-2.82 -7.38,-1.87 -13.73,-5.21 -19.01,-10.06 -5.29,-4.81 -9.32,-11.27 -12.15,-19.37 -2.82,-8.12 -4.22,-18.36 -4.22,-30.84l0 -78.21 -7.05 0c-8.7,0 -13.07,-4.12 -13.07,-12.34l0 -33.11 22.21 0 2.82 -44.4 40.86 0c8.7,0 13.07,4.13 13.07,12.33l0 32.07 26.75 0c8.69,0 13.03,4.12 13.03,12.34l0.03 33.11 -39.81 0 0 77.15c0,12.48 5.5,18.69 16.55,18.69l10.2 0c8.69,0 13.03,4.1 13.03,12.33l0.03 27.12zm155.12 2.13l-45.81 0c-8.7,0 -13.07,-4.12 -13.07,-12.34l0.05 -170.53 45.8 0c8.66,0 13.03,4.12 13.03,12.34l0 170.53zm-29.62 -200.84c-11.96,0 -20.49,-2.06 -25.55,-6.17 -5.03,-4.12 -7.56,-10.99 -7.56,-20.6 0,-9.65 2.53,-16.51 7.56,-20.63 5.06,-4.11 13.59,-6.15 25.55,-6.15 12,0 20.52,2.04 25.54,6.15 5.07,4.12 7.6,10.98 7.6,20.63 0,9.61 -2.53,16.48 -7.6,20.6 -5.02,4.11 -13.54,6.17 -25.54,6.17zm210.09 205.43c-14.31,0 -26.57,-1.85 -36.82,-5.47 -10.23,-3.63 -18.53,-9.33 -25.03,-17.11 -6.42,-7.74 -11.12,-17.66 -14.06,-29.76 -2.93,-12.08 -4.4,-26.59 -4.4,-43.5 0,-17.14 1.44,-31.79 4.4,-43.87 2.94,-12.1 7.61,-22.02 14.06,-29.76 6.5,-7.78 14.8,-13.4 25.03,-16.92 10.25,-3.53 22.51,-5.29 36.82,-5.29 14.35,0 26.61,1.76 36.81,5.29 10.24,3.52 18.58,9.14 25.04,16.92 6.46,7.74 11.15,17.66 14.09,29.76 2.94,12.08 4.41,26.73 4.41,43.87 0,16.91 -1.47,31.42 -4.41,43.5 -2.94,12.1 -7.63,22.02 -14.09,29.76 -6.46,7.78 -14.8,13.48 -25.04,17.11 -10.2,3.62 -22.46,5.47 -36.81,5.47zm20.81 -95.84c0,-11.3 -0.33,-20.27 -0.88,-26.97 -0.58,-6.68 -1.73,-11.87 -3.37,-15.49 -1.62,-3.63 -3.75,-6.07 -6.32,-7.23 -2.61,-1.18 -6.02,-1.76 -10.24,-1.76 -4.22,0 -7.63,0.58 -10.2,1.76 -2.6,1.16 -4.71,3.6 -6.35,7.23 -1.65,3.62 -2.76,8.81 -3.34,15.49 -0.59,6.7 -0.88,15.7 -0.88,26.97 0,11.48 0.29,20.67 0.88,27.48 0.58,6.8 1.69,12.05 3.34,15.67 1.64,3.65 3.75,6.03 6.35,7.23 2.57,1.15 5.98,1.74 10.2,1.74 4.22,0 7.63,-0.59 10.24,-1.74 2.57,-1.2 4.7,-3.58 6.32,-7.23 1.64,-3.62 2.74,-8.87 3.37,-15.67 0.55,-6.81 0.84,-16 0.88,-27.48zm218.17 91.25l-45.81 0c-8.66,0 -13.03,-4.12 -13.03,-12.34l0 -170.53 33.85 0c5.39,0 9.1,0.88 11.08,2.64 1.99,1.77 3.93,5.59 5.79,11.45l2.14 6.35c8.22,-8.9 16.26,-15.25 24.15,-19.04 7.85,-3.74 17.07,-5.62 27.64,-5.62 33.36,0 50.02,20.68 50.02,62l0 125.09 -45.81 0c-8.65,0 -13.02,-4.12 -13.02,-12.34l0 -106.77c0,-6.09 -1.18,-10.61 -3.53,-13.55 -2.34,-2.93 -6.68,-4.4 -13.03,-4.4 -3.52,0 -7.15,0.59 -10.93,1.76 -3.75,1.17 -6.9,2.94 -9.51,5.28l0 130.02zm194.6 -44.38c9.84,0.69 19.38,1.29 28.52,1.76 9.18,0.43 17.15,0.69 23.97,0.69 10.57,0 17.73,-0.88 21.47,-2.64 3.78,-1.76 5.65,-5.36 5.65,-10.76 0,-2.34 -0.36,-4.21 -1.06,-5.64 -0.69,-1.39 -1.98,-2.68 -3.86,-3.86 -1.87,-1.16 -4.4,-2.23 -7.59,-3.18 -3.15,-0.93 -7.34,-2 -12.52,-3.17 -9.83,-2.34 -18.31,-4.87 -25.36,-7.56 -7.05,-2.71 -12.92,-6.05 -17.62,-10.05 -4.69,-4 -8.15,-9.1 -10.38,-15.34 -2.24,-6.22 -3.34,-14.14 -3.34,-23.76 0,-12.25 1.64,-22.16 4.91,-29.79 3.31,-7.64 7.93,-13.65 13.91,-18.14 6.02,-4.48 13.11,-7.52 21.33,-9.17 8.22,-1.66 17.25,-2.47 27.16,-2.47 13.84,0 24.92,1 33.29,3.02 8.33,1.98 14.5,3.81 18.5,5.46 4.22,1.84 7.15,3.94 8.78,6.17 1.68,2.2 2.48,5.79 2.48,10.72l0 23.6c-15.52,-0.92 -26.97,-1.57 -34.35,-1.91 -7.41,-0.36 -12.99,-0.54 -16.73,-0.54 -8,0 -14.06,0.65 -18.18,1.94 -4.11,1.28 -6.16,4.39 -6.16,9.32 0,4.74 1.95,8 5.84,9.88 3.89,1.86 9.9,3.77 18.12,5.64 9.88,2.57 18.5,5.19 25.92,7.76 7.42,2.56 13.43,5.94 18.14,10.04 4.69,4.08 8.22,9.25 10.57,15.5 2.35,6.19 3.51,14.17 3.51,23.78 0,11.97 -1.68,21.95 -5.09,29.96 -3.42,7.95 -8.19,14.3 -14.28,19.01 -6.1,4.69 -13.4,8 -21.84,9.87 -8.45,1.86 -17.73,2.83 -27.82,2.83 -12.01,0 -22.98,-0.97 -32.96,-2.83 -9.99,-1.87 -17.32,-3.78 -22.03,-5.63 -4.22,-1.9 -7.08,-4.17 -8.62,-6.89 -1.54,-2.71 -2.28,-6.06 -2.28,-10.03l0 -23.59z"/>
  <path class="fil1" d="M530.24 1223.82l-153.71 951.51 -151.08 0 -153.76 -951.51 125.94 0 103.35 726.22 103.37 -726.22 125.89 0zm180.21 951.51l-127.21 0 0 -788.52c0,-108.67 50.8,-162.99 152.43,-162.99l95.4 0c101.6,0 152.42,54.32 152.42,162.99l0 788.52 -127.24 0 0 -348.53 -145.8 0 0 348.53zm145.8 -463.82l0 -316.77c0,-37.09 -18.54,-55.64 -55.64,-55.64l-34.47 0c-37.11,0 -55.69,18.57 -55.69,55.69l0 316.72 145.8 0zm239.86 -487.69l249.14 0c97.19,0 145.79,54.32 145.79,162.99l0 234.57c0,83.04 -25.18,135.63 -75.54,157.7l88.79 396.25 -120.61 0 -83.46 -384.34 -76.86 0 0 384.34 -127.25 0 0 -951.51zm127.25 458.53l83.47 0c37.98,0 56.99,-22.97 56.99,-68.91l0 -205.42c0,-45.94 -19.01,-68.92 -56.99,-68.92l-83.47 0 0 343.25zm373.68 492.98l0 -951.51 221.32 0c119.25,0 178.9,60.97 178.9,182.88l0 630.81c0,91.87 -50.8,137.82 -152.4,137.82l-247.82 0zm127.26 -115.28l95.38 0c33.59,0 50.36,-14.14 50.36,-42.43l0 -609.6c0,-45.94 -18.97,-68.92 -56.96,-68.92l-88.78 0 0 720.95zm669.22 115.28l0 -432.01 -156.37 0 0 432.01 -127.25 0 0 -951.51 127.25 0 0 404.17 156.37 0 0 -404.17 127.21 0 0 951.51 -127.21 0zm504.9 -392.26l117.96 -559.25 140.47 0 0 951.51 -127.21 0 13.24 -622.86 -95.43 450.57 -98.07 0 -95.4 -450.57 13.25 622.86 -127.21 0 0 -951.51 140.46 0 117.94 559.25zm498.29 392.26l-127.21 0 0 -788.52c0,-108.67 50.79,-162.99 152.39,-162.99l95.42 0c101.6,0 152.4,54.32 152.4,162.99l0 788.52 -127.22 0 0 -348.53 -145.78 0 0 348.53zm145.78 -463.82l0 -316.77c0,-37.09 -18.57,-55.64 -55.67,-55.64l-34.44 0c-37.1,0 -55.67,18.57 -55.67,55.69l0 316.72 145.78 0zm503.58 -27.84l0 -459.85 127.22 0 0 951.51 -127.22 0 0 -189.51 -136.5 -433.35 0 622.86 -127.22 0 0 -951.51 127.22 0 136.5 459.85z"/>
  <path class="fil2" d="M56.18 975.62l4132.72 0c8.95,0 16.25,7.31 16.25,16.22l0 0c0,8.97 -7.3,16.28 -16.25,16.28l-4132.72 0c-8.91,0 -16.26,-7.31 -16.26,-16.28l0 0c0,-8.91 7.35,-16.22 16.26,-16.22z"/>
  <path class="fil3 str0" d="M778.52 961.32c16.89,0 30.6,13.68 30.6,30.58 0,16.88 -13.71,30.58 -30.6,30.58 -16.88,0 -30.58,-13.7 -30.58,-30.58 0,-16.9 13.7,-30.58 30.58,-30.58z"/>
  <path class="fil3 str0" d="M1162.52 961.32c16.89,0 30.6,13.68 30.6,30.58 0,16.88 -13.71,30.58 -30.6,30.58 -16.9,0 -30.58,-13.7 -30.58,-30.58 0,-16.9 13.68,-30.58 30.58,-30.58z"/>
  <path class="fil3 str0" d="M1546.51 961.32c16.89,0 30.59,13.68 30.59,30.58 0,16.88 -13.7,30.58 -30.59,30.58 -16.89,0 -30.58,-13.7 -30.58,-30.58 0,-16.9 13.69,-30.58 30.58,-30.58z"/>
  <path class="fil3 str0" d="M1930.5 961.32c16.89,0 30.59,13.68 30.59,30.58 0,16.88 -13.7,30.58 -30.59,30.58 -16.88,0 -30.58,-13.7 -30.58,-30.58 0,-16.9 13.7,-30.58 30.58,-30.58z"/>
  <path class="fil3" d="M2314.55 961.28c16.89,0 30.58,13.69 30.58,30.56 0,16.9 -13.69,30.62 -30.58,30.62 -16.89,-0.04 -30.58,-13.72 -30.58,-30.62 0,-16.87 13.69,-30.56 30.58,-30.56z"/>
  <path class="fil2" d="M2314.55 953.83c10.46,0 19.97,4.26 26.86,11.15l0 0 0.05 0c6.85,6.91 11.12,16.42 11.12,26.86 0,10.51 -4.27,20.05 -11.12,26.92 -6.9,6.87 -16.41,11.15 -26.91,11.15 -10.5,0 -20.04,-4.28 -26.9,-11.15 -6.87,-6.87 -11.16,-16.41 -11.16,-26.92 0,-10.44 4.29,-19.95 11.16,-26.86l0.04 0 0 0c6.89,-6.89 16.4,-11.15 26.86,-11.15zm16.37 21.65c-4.19,-4.17 -9.98,-6.74 -16.37,-6.74 -6.42,0 -12.22,2.59 -16.37,6.74l0 0c-4.19,4.19 -6.76,9.99 -6.76,16.36 0,6.4 2.57,12.2 6.76,16.38 4.19,4.19 9.98,6.76 16.37,6.76 6.39,0 12.18,-2.57 16.37,-6.76 4.15,-4.18 6.75,-9.98 6.75,-16.38 0,-6.37 -2.57,-12.17 -6.75,-16.32l0 -0.04z"/>
  <path class="fil2" d="M2698.51 953.86c10.45,0 19.96,4.26 26.86,11.15l0 0 0.04 0c6.86,6.91 11.12,16.42 11.12,26.86 0,10.51 -4.26,20.05 -11.12,26.92 -6.9,6.87 -16.41,11.15 -26.9,11.15 -10.5,0 -20.04,-4.28 -26.91,-11.15 -6.87,-6.87 -11.15,-16.41 -11.15,-26.92 0,-10.44 4.28,-19.95 11.15,-26.86l0.04 0 0 0c6.9,-6.89 16.41,-11.15 26.87,-11.15zm16.36 21.65c-4.18,-4.17 -9.97,-6.74 -16.36,-6.74 -6.42,0 -12.23,2.59 -16.37,6.74l0 0c-4.19,4.19 -6.76,9.99 -6.76,16.36 0,6.4 2.57,12.2 6.76,16.38 4.18,4.19 9.98,6.76 16.37,6.76 6.39,0 12.18,-2.57 16.36,-6.76 4.15,-4.18 6.76,-9.98 6.76,-16.38 0,-6.37 -2.57,-12.17 -6.76,-16.32l0 -0.04z"/>
  <path class="fil2" d="M3082.46 953.89c10.46,0 19.97,4.26 26.87,11.15l0 0 0.04 0c6.85,6.91 11.12,16.42 11.12,26.86 0,10.51 -4.27,20.05 -11.12,26.92 -6.9,6.87 -16.41,11.15 -26.91,11.15 -10.49,0 -20.04,-4.28 -26.9,-11.15 -6.87,-6.87 -11.16,-16.41 -11.16,-26.92 0,-10.44 4.29,-19.95 11.16,-26.86l0.04 0 0 0c6.9,-6.89 16.41,-11.15 26.86,-11.15zm16.37 21.65c-4.18,-4.17 -9.98,-6.74 -16.37,-6.74 -6.42,0 -12.22,2.59 -16.36,6.74l0 0c-4.2,4.19 -6.77,9.99 -6.77,16.36 0,6.4 2.57,12.2 6.77,16.38 4.18,4.19 9.97,6.76 16.36,6.76 6.39,0 12.19,-2.57 16.37,-6.76 4.15,-4.18 6.75,-9.98 6.75,-16.38 0,-6.37 -2.57,-12.17 -6.75,-16.32l0 -0.04z"/>
  <path class="fil2" d="M3466.42 953.92c10.46,0 19.96,4.26 26.86,11.15l0 0 0.04 0c6.86,6.91 11.13,16.42 11.13,26.86 0,10.51 -4.27,20.05 -11.13,26.92 -6.89,6.87 -16.4,11.15 -26.9,11.15 -10.5,0 -20.04,-4.28 -26.91,-11.15 -6.86,-6.87 -11.15,-16.41 -11.15,-26.92 0,-10.44 4.29,-19.95 11.15,-26.86l0.05 0 0 0c6.89,-6.89 16.4,-11.15 26.86,-11.15zm16.37 21.65c-4.19,-4.17 -9.98,-6.74 -16.37,-6.74 -6.42,0 -12.23,2.59 -16.37,6.74l0 0c-4.19,4.19 -6.76,9.99 -6.76,16.36 0,6.4 2.57,12.2 6.76,16.38 4.19,4.19 9.98,6.76 16.37,6.76 6.39,0 12.18,-2.57 16.37,-6.76 4.15,-4.18 6.75,-9.98 6.75,-16.38 0,-6.37 -2.57,-12.17 -6.75,-16.32l0 -0.04z"/>
  <path class="fil2" d="M1930.52 953.86c10.46,0 19.97,4.26 26.86,11.15l0 0 0.04 0c6.86,6.91 11.13,16.42 11.13,26.86 0,10.51 -4.27,20.05 -11.13,26.92 -6.89,6.87 -16.4,11.15 -26.9,11.15 -10.5,0 -20.04,-4.28 -26.91,-11.15 -6.86,-6.87 -11.15,-16.41 -11.15,-26.92 0,-10.44 4.29,-19.95 11.15,-26.86l0.05 0 0 0c6.89,-6.89 16.4,-11.15 26.86,-11.15zm16.37 21.65c-4.19,-4.17 -9.98,-6.74 -16.37,-6.74 -6.42,0 -12.23,2.59 -16.37,6.74l0 0c-4.19,4.19 -6.76,9.99 -6.76,16.36 0,6.4 2.57,12.2 6.76,16.38 4.19,4.19 9.98,6.76 16.37,6.76 6.39,0 12.18,-2.57 16.37,-6.76 4.15,-4.18 6.75,-9.98 6.75,-16.38 0,-6.37 -2.57,-12.17 -6.75,-16.32l0 -0.04z"/>
  <path class="fil3 str0" d="M2698.5 961.32c16.89,0 30.58,13.68 30.58,30.58 0,16.88 -13.69,30.58 -30.58,30.58 -16.89,0 -30.59,-13.7 -30.59,-30.58 0,-16.9 13.7,-30.58 30.59,-30.58z"/>
  <path class="fil3" d="M3082.55 961.28c16.89,0 30.57,13.69 30.57,30.56 0,16.9 -13.68,30.62 -30.57,30.62 -16.88,-0.04 -30.58,-13.72 -30.58,-30.62 0,-16.87 13.7,-30.56 30.58,-30.56z"/>
  <path class="fil4 str0" d="M3082.5 961.32c16.88,0 30.58,13.68 30.58,30.58 0,16.88 -13.7,30.58 -30.59,30.58 -16.89,0 -30.59,-13.7 -30.59,-30.58 0,-16.9 13.7,-30.58 30.6,-30.58z"/>
  <path class="fil3 str0" d="M3466.49 961.32c16.9,0 30.58,13.68 30.58,30.58 0,16.88 -13.68,30.58 -30.58,30.58 -16.9,0 -30.58,-13.7 -30.58,-30.58 0,-16.9 13.68,-30.58 30.58,-30.58z"/>
  <path class="fil5" d="M366.59 355.47c0,0 493.78,-65.71 1216.41,334.81 722.62,400.55 1263.01,46.66 1767.4,-152.58 -1119.32,326.37 -1009.43,333.2 -2030.16,-46.6 -362.34,-134.82 -574.31,-200.26 -953.65,-135.63z"/>
  <polygon class="fil5" points="3093.95,421.28 3185.16,479.16 3184.72,548.1 3190.01,520.27 3906.69,167.91 4113.22,228.69 3762.7,377.38 3883.06,493.81 3873.84,565.38 3553.56,466.1 3184.1,607.59 3183.73,740.98 3093.77,651.2 "/>
  <polygon class="fil5" points="3245.41,335.78 3407.38,396.04 3624.05,290.52 3372.96,301.05 "/>
  <path class="fil6" d="M3299.14 315.15c0,0 -391.71,18.35 -1009.39,333.32 -617.74,314.99 -1108.61,181.91 -1595.12,135.68 1056.37,39.39 960.5,56.73 1787.66,-276.87 293.63,-118.46 521.85,-174.49 816.85,-192.13z"/>
  <polygon class="fil6" points="1146.66,628.81 1084.75,717.32 1111.68,780.76 1096.09,757.17 299.02,707.69 131.8,843.28 512.52,845.62 446.24,999.41 482.32,1061.93 739.69,847.02 1135.18,835.49 1186.81,958.45 1235.3,840.96 "/>
  <polygon class="fil6" points="973.96,608.19 847.66,726.12 607.07,712.14 842.89,625.21 "/>
  <path class="fil2" d="M1546.53 953.86c10.45,0 19.96,4.26 26.86,11.15l0 0 0.04 0c6.86,6.91 11.13,16.42 11.13,26.86 0,10.51 -4.27,20.05 -11.13,26.92 -6.89,6.87 -16.4,11.15 -26.9,11.15 -10.5,0 -20.04,-4.28 -26.91,-11.15 -6.86,-6.87 -11.15,-16.41 -11.15,-26.92 0,-10.44 4.29,-19.95 11.15,-26.86l0.04 0 0 0c6.9,-6.89 16.41,-11.15 26.87,-11.15zm16.36 21.65c-4.18,-4.17 -9.97,-6.74 -16.36,-6.74 -6.42,0 -12.23,2.59 -16.37,6.74l0 0c-4.19,4.19 -6.76,9.99 -6.76,16.36 0,6.4 2.57,12.2 6.76,16.38 4.18,4.19 9.98,6.76 16.37,6.76 6.39,0 12.18,-2.57 16.36,-6.76 4.15,-4.18 6.76,-9.98 6.76,-16.38 0,-6.37 -2.57,-12.17 -6.76,-16.32l0 -0.04z"/>
  <path class="fil2" d="M1162.54 953.86c10.45,0 19.96,4.26 26.86,11.15l0 0 0.04 0c6.86,6.91 11.12,16.42 11.12,26.86 0,10.51 -4.26,20.05 -11.12,26.92 -6.9,6.87 -16.41,11.15 -26.9,11.15 -10.5,0 -20.04,-4.28 -26.91,-11.15 -6.87,-6.87 -11.15,-16.41 -11.15,-26.92 0,-10.44 4.28,-19.95 11.15,-26.86l0.04 0 0 0c6.9,-6.89 16.41,-11.15 26.87,-11.15zm16.36 21.65c-4.18,-4.17 -9.98,-6.74 -16.36,-6.74 -6.42,0 -12.23,2.59 -16.37,6.74l0 0c-4.19,4.19 -6.76,9.99 -6.76,16.36 0,6.4 2.57,12.2 6.76,16.38 4.18,4.19 9.98,6.76 16.37,6.76 6.38,0 12.18,-2.57 16.36,-6.76 4.15,-4.18 6.75,-9.98 6.75,-16.38 0,-6.37 -2.57,-12.17 -6.75,-16.32l0 -0.04z"/>
  <path class="fil2" d="M778.54 953.86c10.46,0 19.97,4.26 26.87,11.15l0 0 0.04 0c6.86,6.91 11.12,16.42 11.12,26.86 0,10.51 -4.26,20.05 -11.12,26.92 -6.9,6.87 -16.41,11.15 -26.91,11.15 -10.49,0 -20.03,-4.28 -26.9,-11.15 -6.87,-6.87 -11.15,-16.41 -11.15,-26.92 0,-10.44 4.28,-19.95 11.15,-26.86l0.04 0 0 0c6.9,-6.89 16.41,-11.15 26.86,-11.15zm16.37 21.65c-4.18,-4.17 -9.98,-6.74 -16.37,-6.74 -6.42,0 -12.22,2.59 -16.36,6.74l0 0c-4.19,4.19 -6.76,9.99 -6.76,16.36 0,6.4 2.57,12.2 6.76,16.38 4.18,4.19 9.98,6.76 16.36,6.76 6.39,0 12.19,-2.57 16.37,-6.76 4.15,-4.18 6.75,-9.98 6.75,-16.38 0,-6.37 -2.57,-12.17 -6.75,-16.32l0 -0.04z"/>
 </g>
</svg>
